<?xml version="1.0" encoding="UTF-8"?>
<svg version="1.1" xmlns="http://www.w3.org/2000/svg" width="48" height="48">
<path d="M0 0 C10.56 0 21.12 0 32 0 C32 5.28 32 10.56 32 16 C27.38 16.33 22.76 16.66 18 17 C19.010625 17.99902344 20.02125 18.99804688 21.0625 20.02734375 C22.37513021 21.33059803 23.68762316 22.63399057 25 23.9375 C25.66773437 24.59685547 26.33546875 25.25621094 27.0234375 25.93554688 C27.97089844 26.87817383 27.97089844 26.87817383 28.9375 27.83984375 C29.52402344 28.42113037 30.11054687 29.00241699 30.71484375 29.60131836 C32 31 32 31 32 32 C26.72 32 21.44 32 16 32 C16 37.28 16 42.56 16 48 C14.3666658 46.64468013 12.74220887 45.27765092 11.15625 43.8671875 C8.99848718 41.94690676 8.99848718 41.94690676 6.53125 40.1953125 C0.42648559 35.2303617 0.42648559 35.2303617 -0.39550781 30.93164062 C-0.77753385 25.92475185 -0.46418599 20.99143212 0 16 C4.62 15.67 9.24 15.34 14 15 C12.989375 14.00097656 11.97875 13.00195312 10.9375 11.97265625 C9.62486979 10.66940197 8.31237684 9.36600943 7 8.0625 C6.33226562 7.40314453 5.66453125 6.74378906 4.9765625 6.06445312 C4.34492188 5.43603516 3.71328125 4.80761719 3.0625 4.16015625 C2.47597656 3.57886963 1.88945312 2.99758301 1.28515625 2.39868164 C0 1 0 1 0 0 Z " fill="#000000" transform="translate(8,0)"/>
</svg>
